<svg xmlns="http://www.w3.org/2000/svg" viewBox="0 0 320 120" width="640" height="240" role="img" aria-label="לוגו הסקוושיה של גאיה">
  <defs>
    <linearGradient id="bg" x1="0%" y1="0%" x2="100%" y2="100%">
      <stop offset="0%" style="stop-color:#00bfb3"/>
      <stop offset="100%" style="stop-color:#7de8e0"/>
    </linearGradient>
    <radialGradient id="petal1" cx="50%" cy="80%" r="60%">
      <stop offset="0%" style="stop-color:#ffe0ef"/>
      <stop offset="100%" style="stop-color:#ff80ab"/>
    </radialGradient>
  </defs>

  <!-- רקע -->
  <rect width="320" height="120" rx="24" fill="url(#bg)"/>
  <ellipse cx="160" cy="60" rx="130" ry="45" fill="rgba(255,255,255,0.15)"/>

  <!-- ===== סאקורה שמאל ===== -->
  <path d="M38 95 Q34 88 38 80" stroke="#4caf50" stroke-width="2.5" fill="none" stroke-linecap="round"/>
  <path d="M38 90 Q28 84 26 76 Q34 80 38 90Z" fill="#66bb6a"/>
  <ellipse cx="38" cy="48" rx="8" ry="12" fill="url(#petal1)" opacity="0.95"/>
  <ellipse cx="38" cy="48" rx="8" ry="12" fill="url(#petal1)" opacity="0.95" transform="rotate(72 38 60)"/>
  <ellipse cx="38" cy="48" rx="8" ry="12" fill="url(#petal1)" opacity="0.92" transform="rotate(144 38 60)"/>
  <ellipse cx="38" cy="48" rx="8" ry="12" fill="url(#petal1)" opacity="0.92" transform="rotate(216 38 60)"/>
  <ellipse cx="38" cy="48" rx="8" ry="12" fill="url(#petal1)" opacity="0.92" transform="rotate(288 38 60)"/>
  <ellipse cx="38" cy="37" rx="3" ry="3" fill="#ff9ec4" opacity="0.7"/>
  <ellipse cx="38" cy="37" rx="3" ry="3" fill="#ff9ec4" opacity="0.7" transform="rotate(72 38 60)"/>
  <ellipse cx="38" cy="37" rx="3" ry="3" fill="#ff9ec4" opacity="0.7" transform="rotate(144 38 60)"/>
  <ellipse cx="38" cy="37" rx="3" ry="3" fill="#ff9ec4" opacity="0.7" transform="rotate(216 38 60)"/>
  <ellipse cx="38" cy="37" rx="3" ry="3" fill="#ff9ec4" opacity="0.7" transform="rotate(288 38 60)"/>
  <circle cx="38" cy="60" r="7" fill="#ffe0b2"/>
  <circle cx="38" cy="60" r="4.5" fill="#ffcc80"/>
  <circle cx="38" cy="55" r="1.2" fill="#ff7043"/>
  <circle cx="42" cy="57" r="1.2" fill="#ff7043"/>
  <circle cx="41" cy="63" r="1.2" fill="#ff7043"/>
  <circle cx="35" cy="63" r="1.2" fill="#ff7043"/>
  <circle cx="34" cy="57" r="1.2" fill="#ff7043"/>

  <!-- ===== סאקורה ימין ===== -->
  <path d="M282 95 Q286 88 282 80" stroke="#4caf50" stroke-width="2.5" fill="none" stroke-linecap="round"/>
  <path d="M282 90 Q292 84 294 76 Q286 80 282 90Z" fill="#66bb6a"/>
  <ellipse cx="282" cy="48" rx="8" ry="12" fill="url(#petal1)" opacity="0.95"/>
  <ellipse cx="282" cy="48" rx="8" ry="12" fill="url(#petal1)" opacity="0.95" transform="rotate(72 282 60)"/>
  <ellipse cx="282" cy="48" rx="8" ry="12" fill="url(#petal1)" opacity="0.92" transform="rotate(144 282 60)"/>
  <ellipse cx="282" cy="48" rx="8" ry="12" fill="url(#petal1)" opacity="0.92" transform="rotate(216 282 60)"/>
  <ellipse cx="282" cy="48" rx="8" ry="12" fill="url(#petal1)" opacity="0.92" transform="rotate(288 282 60)"/>
  <ellipse cx="282" cy="37" rx="3" ry="3" fill="#ff9ec4" opacity="0.7"/>
  <ellipse cx="282" cy="37" rx="3" ry="3" fill="#ff9ec4" opacity="0.7" transform="rotate(72 282 60)"/>
  <ellipse cx="282" cy="37" rx="3" ry="3" fill="#ff9ec4" opacity="0.7" transform="rotate(144 282 60)"/>
  <ellipse cx="282" cy="37" rx="3" ry="3" fill="#ff9ec4" opacity="0.7" transform="rotate(216 282 60)"/>
  <ellipse cx="282" cy="37" rx="3" ry="3" fill="#ff9ec4" opacity="0.7" transform="rotate(288 282 60)"/>
  <circle cx="282" cy="60" r="7" fill="#ffe0b2"/>
  <circle cx="282" cy="60" r="4.5" fill="#ffcc80"/>
  <circle cx="282" cy="55" r="1.2" fill="#ff7043"/>
  <circle cx="286" cy="57" r="1.2" fill="#ff7043"/>
  <circle cx="285" cy="63" r="1.2" fill="#ff7043"/>
  <circle cx="279" cy="63" r="1.2" fill="#ff7043"/>
  <circle cx="278" cy="57" r="1.2" fill="#ff7043"/>

  <!-- ===== כיתוב ===== -->
  <text x="160" y="54" text-anchor="middle"
    font-family="'Rubik','Arial',sans-serif"
    font-weight="900" font-size="26" fill="white"
    style="filter:drop-shadow(2px 2px 0px #c04000)">
    הסקוושיה של גאיה
  </text>
  <text x="160" y="76" text-anchor="middle"
    font-family="'Rubik','Arial',sans-serif"
    font-weight="400" font-size="12.5" fill="#fff8e8" opacity="0.92">
    אהבה בכל לחיצה 🌸
  </text>

  <!-- קישוטים -->
  <text x="76" y="46" font-size="13" opacity="0.85">✨</text>
  <text x="228" y="46" font-size="13" opacity="0.85">✨</text>
  <text x="110" y="100" font-size="10" opacity="0.7">🌟</text>
  <text x="200" y="100" font-size="10" opacity="0.7">🌟</text>
</svg>
